<svg width="117" height="93" viewBox="0 0 117 93" fill="none" xmlns="http://www.w3.org/2000/svg">
<path d="M25.2181 34V6H31.4981L34.2981 26.04H34.3781L37.1781 6H43.4581V34H39.2981V12.8H39.2181L36.0181 34H32.3381L29.1381 12.8H29.0581V34H25.2181ZM69.4003 34V10H64.8003V6H78.4003V10H73.8003V34H69.4003ZM80.5306 34V6H92.5306V10H84.9306V17.4H90.9706V21.4H84.9306V30H92.5306V34H80.5306Z" fill="#1F319D"/>
<path d="M46.2683 32.895L49.6351 5.09818L61.548 6.5411L61.0671 10.5121L53.5222 9.59823L52.6324 16.9445L58.6286 17.6708L58.1476 21.6418L52.1514 20.9155L51.1174 29.4531L58.6622 30.367L58.1812 34.3379L46.2683 32.895Z" fill="#1F319D"/>
<path d="M33.993 68.36C30.105 68.36 27.981 66.056 27.981 62.024V48.776C27.981 44.744 30.105 42.44 33.993 42.44C37.881 42.44 40.005 44.744 40.005 48.776V62.024C40.005 66.056 37.881 68.36 33.993 68.36ZM33.993 64.76C35.253 64.76 36.045 64.076 36.045 62.276V48.524C36.045 46.724 35.253 46.04 33.993 46.04C32.733 46.04 31.941 46.724 31.941 48.524V62.276C31.941 64.076 32.733 64.76 33.993 64.76Z" fill="#1F319D"/>
<path d="M55.4774 76.0194L51.4745 48.307L57.888 47.3806C62.2428 46.7516 64.7294 48.8577 65.3699 53.2917L65.7644 56.0234C66.4049 60.4573 64.6159 63.1811 60.2611 63.8101L58.2025 64.1075L59.8322 75.3904L55.4774 76.0194ZM57.6306 60.1485L59.6893 59.8512C61.0749 59.651 61.7356 58.909 61.4497 56.9295L60.975 53.6436C60.6891 51.6642 59.8454 51.1394 58.4598 51.3395L56.4012 51.6369L57.6306 60.1485ZM70.04 43.7258L72.1536 38.7728L76.9043 38.0866L73.3259 43.2512L70.04 43.7258ZM70.7486 73.8135L66.7457 46.1012L78.6225 44.3856L79.1943 48.3445L71.6724 49.431L72.7303 56.755L78.7082 55.8915L79.2801 59.8505L73.3021 60.7139L74.5316 69.2256L82.0535 68.1391L82.6254 72.098L70.7486 73.8135Z" fill="#1F319D"/>
</svg>
